Filename:
Its the Great Pumpkin Charlie Brown DVDRip XviD-G00Die
 
http://www.imdb.com/title/tt0060550/

It's the Great Pumpkin, Charlie Brown is an animated television special, based on the
comic strip Peanuts by Charles M. Schulz.

It was the third Peanuts special (and first Halloween special) to be produced and
animated by Bill Meléndez. Its initial broadcast took place on October 27, 1966, on
the CBS network, preempting My Three Sons; CBS re-aired the special annually
through 2000, with ABC picking up the rights beginning in 2001. The program was
nominated for an Emmy award.

Details:

Format : AVI
Format/Info : Audio Video Interleave
File size : 201 MiB
Duration : 24mn 9s
Overall bit rate : 1 165 Kbps

Video

Format : MPEG-4 Visual
Format profile : Simple@L3
Format settings, BVOP : No
Format settings, QPel : No
Format settings, GMC : No warppoints
Format settings, Matrix : Default
Codec ID : XVID
Codec ID/Hint : XviD
Duration : 24mn 9s
Bit rate : 1 024 Kbps
Width : 720 pixels
Height : 544 pixels
Display aspect ratio : 4/3
Frame rate : 25.000 fps
Resolution : 24 bits
Colorimetry : 4:2:0
Scan type : Progressive
Bits/(Pixel*Frame) : 0.105
Stream size : 177 MiB (88%)
Writing library : XviD 1.1.2 (UTC 2006-11-01)

Audio

Format : MPEG Audio
Format version : Version 1
Format profile : Layer 3
Codec ID : 55
Codec ID/Hint : MP3
Duration : 24mn 9s
Bit rate mode : Constant
Bit rate : 128 Kbps
Channel(s) : 2 channels
Sampling rate : 48.0 KHz
Resolution : 16 bits
Stream size : 22.1 MiB (11%)
Alignment : Aligned on interleaves
Interleave, duration : 24 ms (0.60 video frame) 